<svg xmlns="http://www.w3.org/2000/svg" xmlns:xlink="http://www.w3.org/1999/xlink" id="图层_1" x="0" y="0" version="1.1" viewBox="0 0 24 24" xml:space="preserve" style="enable-background:new 0 0 24 24"><style type="text/css">.st0{fill:url(#SVGID_1_)}</style><linearGradient id="SVGID_1_" x1="12" x2="12" y1="3.001" y2="21.017" gradientUnits="userSpaceOnUse"><stop offset="0" style="stop-color:#fc9999"/><stop offset="1" style="stop-color:#ff1817"/></linearGradient><path d="M16.3,3C13.5,3.1,12,5.1,12,5.1s-1.5-2-4.3-2.1C5.9,2.9,4.2,3.8,3.1,5.3C-0.8,10.4,6.6,16.4,8.3,18	c1,1,2.3,2.1,3.1,2.8c0.4,0.3,0.9,0.3,1.3,0c0.8-0.7,2-1.8,3.1-2.8c1.7-1.6,9-7.6,5.2-12.7C19.8,3.8,18.1,2.9,16.3,3z" class="st0"/></svg>