<svg xmlns="http://www.w3.org/2000/svg" xmlns:xlink="http://www.w3.org/1999/xlink" id="图层_1" x="0" y="0" version="1.1" viewBox="0 0 24 24" xml:space="preserve" style="enable-background:new 0 0 24 24"><style type="text/css">.st0{fill:url(#SVGID_1_)}</style><linearGradient id="SVGID_1_" x1="12.003" x2="12.003" y1="23" y2="1.491" gradientUnits="userSpaceOnUse"><stop offset="0" style="stop-color:#f9d423"/><stop offset="1" style="stop-color:#ff4e50"/></linearGradient><path d="M20,14.9c0-2.7-1.4-5.3-2.5-7.2c-0.2-0.4-0.4-0.8-0.6-1.2l-0.4-0.8c-0.2-0.4-0.5-0.4-0.8,0c0,0-0.5,0.7-0.9,1.2	c-1.2-2.4-1.9-4.3-1.9-4.3l-0.3-0.8c-0.2-0.5-0.5-0.5-0.8-0.2l-0.6,0.6C11,2.6,4,9.6,4,15c0,4.4,3.6,8,8,8S20,19.4,20,14.9	C20,15,20,15,20,14.9C20,15,20,15,20,14.9L20,14.9L20,14.9z M9,17.9c0.1-2.3,1.9-4.6,2.7-5.5c0.1-0.2,0.4-0.1,0.5,0.1	c0.7,2.7,3,3.6,2.9,5.5c-0.1,1.7-1.5,3.1-3.2,3C10.2,20.9,9,19.4,9,17.9z" class="st0"/></svg>