<svg xmlns="http://www.w3.org/2000/svg" xmlns:xlink="http://www.w3.org/1999/xlink" id="图层_1" x="0" y="0" version="1.1" viewBox="0 0 24 24" xml:space="preserve" style="enable-background:new 0 0 24 24"><style type="text/css">.st0{fill:url(#SVGID_1_)}</style><linearGradient id="SVGID_1_" x1="3.611" x2="18.584" y1="21.732" y2="6.759" gradientUnits="userSpaceOnUse"><stop offset="0" style="stop-color:#ee0979"/><stop offset="1" style="stop-color:#ff6a00"/></linearGradient><path d="M11.7,2.2c-0.4,0-0.8,0.3-0.9,0.8l-0.6,2.4l-2.7,3C7.2,8.8,7,9.3,7,9.8V19c0,1.1,0.9,2,2,2h8	c0.7,0,1.4-0.4,1.7-1.1l3-6.8c0.2-0.4,0.3-0.8,0.3-1.2V11c0-1.1-0.9-2-2-2h-7c0,0,1-2.4,1-4.1c0-1.6-1-2.3-1.9-2.6	C12,2.2,11.8,2.2,11.7,2.2z M3.5,9C2.7,9,2,9.7,2,10.5v9C2,20.3,2.7,21,3.5,21S5,20.3,5,19.5v-9C5,9.7,4.3,9,3.5,9z" class="st0"/></svg>