<svg xmlns="http://www.w3.org/2000/svg" xmlns:xlink="http://www.w3.org/1999/xlink" id="图层_1" x="0" y="0" version="1.1" viewBox="0 0 24 24" xml:space="preserve" style="enable-background:new 0 0 24 24"><style type="text/css">.st0{fill:url(#SVGID_1_)}</style><linearGradient id="SVGID_1_" x1="12.001" x2="12.001" y1="3" y2="21.587" gradientUnits="userSpaceOnUse"><stop offset="0" style="stop-color:#00f0c3"/><stop offset="1" style="stop-color:#15d59b"/></linearGradient><path d="M20,3H4C2.9,3,2,3.9,2,5l0,15.6c0,0.9,1.1,1.3,1.7,0.7L6,19h14c1.1,0,2-0.9,2-2V5C22,3.9,21.1,3,20,3z M9,11	c0,0.6-0.4,1-1,1s-1-0.4-1-1s0.4-1,1-1S9,10.4,9,11z M13,11c0,0.6-0.4,1-1,1s-1-0.4-1-1s0.4-1,1-1S13,10.4,13,11z M17,11	c0,0.6-0.4,1-1,1s-1-0.4-1-1s0.4-1,1-1S17,10.4,17,11z" class="st0"/></svg>