<svg xmlns="http://www.w3.org/2000/svg" xmlns:xlink="http://www.w3.org/1999/xlink" id="图层_1" x="0" y="0" version="1.1" viewBox="0 0 24 24" xml:space="preserve" style="enable-background:new 0 0 24 24"><style type="text/css">.st0{fill:url(#SVGID_1_)}</style><linearGradient id="SVGID_1_" x1="4.443" x2="21.057" y1="20.443" y2="3.829" gradientUnits="userSpaceOnUse"><stop offset="0" style="stop-color:#eb3349"/><stop offset="1" style="stop-color:#f45c43"/></linearGradient><path d="M13,2c-1.7,0-3,1.4-3,3c0,1.9,3.4,5.1,4.8,6.3c0.4,0.3,0.9,0.3,1.3,0C17.6,10.1,21,7,21,5c0-1.7-1.4-3-3-3	c-1.6,0-2.5,1.1-2.5,1.1S14.6,2,13,2z M20.6,12c-0.4,0-0.7,0.1-1,0.4L15,17h-4c-0.3,0-0.5-0.2-0.5-0.5S10.7,16,11,16h2.5	c0.8,0,1.5-0.7,1.5-1.5S14.3,13,13.5,13H8.7c-1.1,0-2.1,0.4-2.8,1.2L2,18l4,4l2-2h7.2c0.5,0,1-0.2,1.4-0.6l5-5c0.6-0.6,0.6-1.4,0-2	C21.3,12.1,20.9,12,20.6,12z" class="st0"/></svg>